<?xml version="1.0" encoding="utf-8"?>
<!-- Generator: Adobe Illustrator 19.2.0, SVG Export Plug-In . SVG Version: 6.00 Build 0)  -->
<svg version="1.1" id="Layer_1" xmlns="http://www.w3.org/2000/svg" xmlns:xlink="http://www.w3.org/1999/xlink" x="0px" y="0px"
	 viewBox="0 0 800 187.74" enable-background="new 0 0 800 187.74" xml:space="preserve">
<g id="XMLID_334_">
	<g id="XMLID_337_">
		<polygon id="XMLID_346_" fill="#FFFFFF" points="5.83,0 0,0 60.378,55.778 72.067,55.778 		"/>
		<polygon id="XMLID_345_" fill="#FFFFFF" points="117.726,108.592 60.378,55.778 35.047,55.778 121.346,128.124 154.896,128.076 
			122.196,98.34 		"/>
		<polygon id="XMLID_344_" fill="#FFFFFF" points="116.673,81.366 166.556,128.076 184.629,128.076 267.349,55.826 243.517,55.778 
			174.914,114.861 104.17,55.778 72.067,55.778 112.074,90.826 		"/>
		<polygon id="XMLID_343_" fill="#FFFFFF" points="154.896,128.076 222.722,187.74 228.358,187.74 166.556,128.076 		"/>
		<g id="XMLID_338_">
			<path id="XMLID_339_" fill="#FFFFFF" d="M279.018,55.778v72.299h180.613V55.778H279.018z M416.033,114.861h-93.417V68.216h93.417
				V114.861z"/>
		</g>
	</g>
	<polygon id="XMLID_336_" fill="#FFFFFF" points="498.631,55.778 498.631,128.076 648.151,128.076 648.151,114.861 542.229,114.861 
		542.229,55.778 	"/>
	<polygon id="XMLID_335_" fill="#FFFFFF" points="599.692,55.778 599.692,68.216 679.18,68.216 679.18,128.076 722.777,128.076 
		722.777,68.216 800,68.216 800,55.778 	"/>
</g>
</svg>
